<?xml version="1.0" standalone="no"?><!DOCTYPE svg PUBLIC "-//W3C//DTD SVG 1.1//EN" "http://www.w3.org/Graphics/SVG/1.1/DTD/svg11.dtd"><svg t="1775917624863" class="icon" viewBox="0 0 1024 1024" version="1.1" xmlns="http://www.w3.org/2000/svg" p-id="2144" width="256" height="256" xmlns:xlink="http://www.w3.org/1999/xlink"><path d="M286.322573 491.645416C293.388791 408.639934 345.106759 338.563926 417.421654 305.282938c25.483415-55.267744 73.10492-123.296117 153.952492-207.090569 8.794654-9.058306 17.026466-17.570167 24.957414-25.745361-27.324418-5.242398-55.515613-8.080026-84.343329-8.080026-136.774571 0-259.117886 61.544705-341.0543 158.399613 10.448384 28.976962 17.928036 50.15633 17.928036 50.15633S223.741764 402.5134 286.322573 491.645416zM379.009259 694.224228c-48.485211-35.252899-82.35087-89.148389-91.145524-151.276379-41.49472-47.76998-84.004601-128.331807-122.906157-259.013125-4.096463-13.850449-7.930948-26.797319-11.576114-39.181371-55.326293 74.360592-88.064223 166.498058-88.064223 266.266319 0 56.114019 10.448384 109.803825 29.354741 159.301146 30.143742 4.173043 51.906264 7.349385 51.906264 7.349385S272.265863 706.120163 379.009259 694.224228zM457.526668 291.264667c17.477763-4.322445 35.594095-6.859221 54.461564-6.859221 42.961178 0 82.990463 12.177344 117.193828 32.905434 61.226918-10.166547 147.638434-7.160073 269.940816 18.717294 9.059701 1.87879 17.741786 3.739161 26.159848 5.54325C872.286593 212.411761 760.544141 113.565499 623.279387 78.348416c-17.852308 20.72809-30.519311 35.236526-30.519311 35.236526S506.350607 198.468191 457.526668 291.264667zM729.911239 572.714803c-13.907301 49.14121-43.976339 91.38636-84.080329 120.833019-21.647906 60.436464-75.810653 138.38579-184.695917 238.304478-7.554356 6.915503-14.733143 13.493316-21.724657 19.863397 23.641388 3.870144 47.883482 5.956665 72.577896 5.956665 105.654554 0 202.66284-36.757159 279.149925-98.076736-1.916731-15.672958-3.043437-25.576515-3.043437-25.576515S782.118367 674.605402 729.911239 572.714803zM601.367457 719.256344c-27.474851 11.800767-57.656457 18.378579-89.379225 18.378579-32.549634 0-63.445537-6.991228-91.484253-19.37528-61.302646 12.008498-149.291142 10.655687-275.279623-14.282285-14.057733-2.799766-27.21185-5.412266-39.728421-7.950066 56.717023 124.517945 168.910772 218.310098 305.08566 249.937422 17.73974-18.229177 30.105879-30.801517 30.105879-30.801517S551.07706 819.249733 601.367457 719.256344zM663.572696 342.904791c45.929911 41.49302 75.059515 101.308337 75.059515 168.114882 0 5.01727-0.451297 9.921977-0.752161 14.864546 36.307368 53.538357 65.850405 146.202826 75.962108 302.685787 0.263 3.758604 0.488137 7.291057 0.676433 10.917654 88.627065-81.594343 144.141654-198.538799 144.141654-328.467987 0-49.968042-8.343357-97.944729-23.453092-142.80238-22.626227-3.494591-37.84853-5.918803-37.84853-5.918803S770.766366 331.949274 663.572696 342.904791z" fill="#272636" p-id="2145"></path></svg>